# xmcd
#
# Track frame offsets:
#	150
#	17274
#	31040
#	44729
#	57071
#	82637
#	96025
#	110133
#	123361
#	139365
#	151094
#	165393
#	177724
#	193400
#	205801
#	220425
#
# Disc length: 3137 seconds
# Revision: 0
# Processed by: cddbd v1.5.2PL0 Copyright (c) Steve Scherf et al.
# Submitted via: dBpowerAMP V12.0
#
DISCID=d80c3f10
DTITLE=Various Artist - Race Against Time
DYEAR=2009
DGENRE=Grime
TTITLE0=Wiley (By Ballistiq Beats) - Headbanger
TTITLE1=Wiley (Feat. Ghetts and Kano)(By Wiley) - She's Glowing (Remix)
TTITLE2=Wiley (By Nathan Retro) - Eyes Of The Lord
TTITLE3=Wiley (By Danny Weed) - Hummer Activity
TTITLE4=Wiley (By Danny Weed) - Off The Radar
TTITLE5=Wiley (Feat. MC Dream)(By Skream) - The Olly
TTITLE6=Wiley (By Maniac) - I Was Like You
TTITLE7=Wiley (By Maniac) - Race Against Time
TTITLE8=Wiley (Feat. BBK: Shorty, Skepta, JME and Frisco)(By Skepta) - Too Many Man
TTITLE9=Wiley (By Bless Beats) - Where's My Brother
TTITLE10=Wiley (By Skeamz) - Out Of The Game
TTITLE11=Wiley - Bang
TTITLE12=Wiley (Feat. Giggs and Trigga)(By Wiley) - Zip It Up
TTITLE13=Wiley (By Maniac) - Average Worker
TTITLE14=Wiley (By Deeco) - Time Flies By
TTITLE15=Wiley (By Y.Wizz) - Music I Like
EXTD=
EXTT0=
EXTT1=
EXTT2=
EXTT3=
EXTT4=
EXTT5=
EXTT6=
EXTT7=
EXTT8=
EXTT9=
EXTT10=
EXTT11=
EXTT12=
EXTT13=
EXTT14=
EXTT15=
PLAYORDER=
